<?xml version="1.0" encoding="UTF-8" standalone="no"?>
<!-- Created with Inkscape (http://www.inkscape.org/) -->

<svg
   width="204.78802mm"
   height="207.86174mm"
   viewBox="0 0 204.78802 207.86174"
   version="1.1"
   id="svg1"
   inkscape:version="1.4.2 (f4327f4, 2025-05-13)"
   sodipodi:docname="cerrosive logo v1.svg"
   xmlns:inkscape="http://www.inkscape.org/namespaces/inkscape"
   xmlns:sodipodi="http://sodipodi.sourceforge.net/DTD/sodipodi-0.dtd"
   xmlns="http://www.w3.org/2000/svg"
   xmlns:svg="http://www.w3.org/2000/svg">
  <sodipodi:namedview
     id="namedview1"
     pagecolor="#ffffff"
     bordercolor="#000000"
     borderopacity="0.25"
     inkscape:showpageshadow="2"
     inkscape:pageopacity="0.0"
     inkscape:pagecheckerboard="0"
     inkscape:deskcolor="#d1d1d1"
     inkscape:document-units="mm"
     showguides="true"
     inkscape:zoom="0.68862935"
     inkscape:cx="188.7808"
     inkscape:cy="462.51296"
     inkscape:window-width="1920"
     inkscape:window-height="991"
     inkscape:window-x="-9"
     inkscape:window-y="-9"
     inkscape:window-maximized="1"
     inkscape:current-layer="layer1">
    <sodipodi:guide
       position="-47.245201,122.98323"
       orientation="1,0"
       id="guide3"
       inkscape:locked="false" />
  </sodipodi:namedview>
  <defs
     id="defs1" />
  <g
     inkscape:label="Layer 1"
     inkscape:groupmode="layer"
     id="layer1"
     style="opacity:1"
     transform="translate(-2.6892415,-2.3052856)">
    <path
       id="path2"
       style="display:inline;opacity:1;fill:#000000;stroke-width:0.259502"
       d="M 105.08351,2.3052856 C 48.532832,2.3051015 2.6893425,48.836457 2.6892415,106.23589 2.6890565,163.63554 48.532629,210.1672 105.08351,210.16702 c 22.58514,-5e-5 44.5366,-7.57931 62.43701,-21.55786 -9.96833,3.27519 -33.72014,10.60892 -40.89621,8.6341 -5.57386,-1.53391 -12.56598,-3.8461 -19.50578,-8.40207 -11.888546,-0.26775 -62.990905,-8.60941 -73.158329,-52.18493 -3.631939,-15.56576 7.487095,44.02526 68.596329,48.83268 -10.374618,-8.51078 -19.884463,-22.9175 -23.407873,-48.32315 -0.199571,-1.43902 -0.352961,-2.88511 -0.462504,-4.33721 C 63.269412,82.186038 30.116764,96.513896 24.301359,99.614075 24.497822,99.489494 24.7286,99.340013 24.994857,99.163973 52.791239,80.785885 73.485188,107.35617 78.483582,126.07189 79.165182,76.158182 126.36903,22.15627 126.36903,22.15627 c 0,0 11.55812,96.40672 26.61543,66.446591 C 159.45059,75.736928 167.08721,44.189755 171.02419,26.7255 152.56517,10.953853 129.21188,2.3052848 105.08351,2.3052856 Z M 172.267,27.805021 c -1.91992,14.152303 -6.29693,37.776361 -15.8905,61.333207 -5.361,13.163852 -10.941,7.838701 -16.60674,0.927592 -4.58428,-5.591928 -14.10078,-40.956821 -15.27555,-57.87347 -0.70652,-10.173775 -38.505239,50.621153 -41.390755,76.42841 -3.52202,31.49999 -0.405703,48.73425 12.023038,64.21107 5.800997,7.22367 13.952607,17.27096 30.213657,21.8152 12.74848,3.56263 37.14951,-4.36344 49.75924,-12.57494 20.65717,-19.64867 32.37793,-47.1013 32.37787,-75.8362 -9e-5,-30.083933 -12.84317,-58.691905 -35.21026,-78.430869 z M 90.813578,122.94598 h 5.17e-4 5.17e-4 l 5.17e-4,5.2e-4 5.16e-4,5.2e-4 5.17e-4,5.1e-4 c 0.0015,0.003 0.0023,0.01 0.0026,0.0207 0.217869,7.32577 1.415222,13.50908 3.046842,18.62988 l 5.910234,-4.454 -5.36143,6.09266 c 1.819987,5.17441 4.059756,9.16863 6.073022,12.07781 l 6.01203,-4.53047 -5.10149,5.79706 c 1.087,1.45292 2.0707,2.56545 2.83496,3.35483 1.38841,1.43405 3.54718,3.17992 5.84719,4.89531 l 6.74326,-5.08186 -5.36401,6.09575 c 4.55194,3.29935 9.16791,6.2234 9.16791,6.2234 0,0 -5.27267,-1.05812 -11.28975,-3.81269 l -4.46794,5.07773 2.85874,-5.84771 c -0.70747,-0.35405 -1.41939,-0.73179 -2.12907,-1.13378 -2.94683,-1.66921 -5.34638,-3.81403 -7.295684,-6.25388 l -3.75791,4.27002 2.746603,-5.61826 c -2.68126,-3.80534 -4.392097,-8.20033 -5.459615,-12.57959 l -4.011125,4.55786 3.463354,-7.08329 c -2.052779,-10.7382 -0.570692,-20.67091 -0.471289,-20.699 z m 95.224162,7.09776 c 5.27645,-0.23244 9.04354,0.54473 9.25318,1.68775 2.71012,14.77609 -8.08631,37.97707 -23.57065,44.80037 -15.48436,6.82329 -25.26616,1.71152 -25.26616,1.71152 0,0 -2.2128,-21.27744 10.10429,-35.64227 7.69818,-8.97801 20.68526,-12.16996 29.47934,-12.55737 z" />
    <path
       id="path8"
       style="opacity:1;fill:#000000;stroke-width:0.3652"
       d="m 176.76325,152.86035 a 8.241545,8.4631746 0 0 0 -8.2416,8.46322 8.241545,8.4631746 0 0 0 8.2416,8.46323 8.241545,8.4631746 0 0 0 8.2416,-8.46323 8.241545,8.4631746 0 0 0 -8.2416,-8.46322 z m 0.0679,4.32395 a 4.071354,4.2095663 0 0 1 4.07131,4.20951 4.071354,4.2095663 0 0 1 -4.07131,4.20953 4.071354,4.2095663 0 0 1 -4.0713,-4.20953 4.071354,4.2095663 0 0 1 4.0713,-4.20951 z" />
    <path
       id="path10"
       style="opacity:1;fill:#000000;stroke-width:0.3652"
       d="m 162.87244,141.94077 a 8.241545,8.4631746 0 0 0 -8.2416,8.46323 8.241545,8.4631746 0 0 0 8.2416,8.46323 8.241545,8.4631746 0 0 0 8.2416,-8.46323 8.241545,8.4631746 0 0 0 -8.2416,-8.46323 z m 0.0679,4.32395 a 4.071354,4.2095663 0 0 1 4.07132,4.20952 4.071354,4.2095663 0 0 1 -4.07132,4.20951 4.071354,4.2095663 0 0 1 -4.0713,-4.20951 4.071354,4.2095663 0 0 1 4.0713,-4.20952 z" />
    <path
       id="path11"
       style="opacity:1;fill:#000000;stroke-width:0.3652"
       d="m 160.21594,159.9137 a 8.241545,8.4631746 0 0 0 -8.2416,8.46323 8.241545,8.4631746 0 0 0 8.2416,8.46323 8.241545,8.4631746 0 0 0 8.2416,-8.46323 8.241545,8.4631746 0 0 0 -8.2416,-8.46323 z m 0.0679,4.32395 a 4.071354,4.2095663 0 0 1 4.0713,4.20952 4.071354,4.2095663 0 0 1 -4.0713,4.20952 4.071354,4.2095663 0 0 1 -4.07131,-4.20952 4.071354,4.2095663 0 0 1 4.07131,-4.20952 z" />
    <ellipse
       style="fill:#000000;stroke-width:0.597891"
       id="path12"
       cx="162.94168"
       cy="150.50394"
       rx="2.1055408"
       ry="2.1817017" />
    <ellipse
       style="fill:#000000;stroke-width:0.597891"
       id="ellipse12"
       cx="176.86955"
       cy="161.45413"
       rx="2.1055408"
       ry="2.1817017" />
    <ellipse
       style="fill:#000000;stroke-width:0.597891"
       id="ellipse13"
       cx="160.34821"
       cy="168.46609"
       rx="2.1055408"
       ry="2.1817017" />
  </g>
  <g
     id="layer3"
     inkscape:label="Layer 2"
     style="mix-blend-mode:normal"
     inkscape:groupmode="layer"
     transform="translate(-2.6892415,-2.3052856)" />
</svg>
